<svg width="1280" height="360" viewBox="0 0 1280 360" fill="none" xmlns="http://www.w3.org/2000/svg" role="img" aria-label="Loomem — the open-source context layer for your AI agents. Swap the model, switch the tool; your context follows.">
  <defs>
    <radialGradient id="bg" cx="0%" cy="0%" r="130%">
      <stop offset="0" stop-color="#FDEAC4"/>
      <stop offset="0.4" stop-color="#FBF8F1"/>
      <stop offset="1" stop-color="#E9F4FD"/>
    </radialGradient>
    <linearGradient id="weave" x1="0" y1="0" x2="1" y2="0">
      <stop offset="0" stop-color="#EE9913"/><stop offset="0.2" stop-color="#F4AC2E"/>
      <stop offset="0.64" stop-color="#63B5F0"/><stop offset="1" stop-color="#1684DC"/>
    </linearGradient>
    <linearGradient id="weaveText" gradientUnits="userSpaceOnUse" x1="17.0" y1="-170.5" x2="1633.5" y2="114.5">
      <stop offset="0" stop-color="#CE7D08"/><stop offset="0.3" stop-color="#EE9913"/><stop offset="0.36" stop-color="#F88546"/><stop offset="0.42" stop-color="#F7756F"/><stop offset="0.48" stop-color="#EB6D95"/><stop offset="0.54" stop-color="#D66BB7"/><stop offset="0.6" stop-color="#B86ED2"/><stop offset="0.66" stop-color="#9474E2"/><stop offset="0.72" stop-color="#667CE6"/><stop offset="0.78" stop-color="#1684DC"/>
    </linearGradient>
    <linearGradient id="weaveWm" gradientUnits="userSpaceOnUse" x1="163.91" y1="-73.32" x2="470.71" y2="-19.22" spreadMethod="reflect">
      <stop offset="0" stop-color="#CE7D08"/><stop offset="0.3" stop-color="#EE9913"/><stop offset="0.36" stop-color="#F88546"/><stop offset="0.42" stop-color="#F7756F"/><stop offset="0.48" stop-color="#EB6D95"/><stop offset="0.54" stop-color="#D66BB7"/><stop offset="0.6" stop-color="#B86ED2"/><stop offset="0.66" stop-color="#9474E2"/><stop offset="0.72" stop-color="#667CE6"/><stop offset="0.78" stop-color="#1684DC"/>
      <animateTransform attributeName="gradientTransform" type="translate" from="0 0" to="613.60 108.19" dur="14s" repeatCount="indefinite"/>
    </linearGradient>
  </defs>

  <rect x="2" y="2" width="1276" height="356" rx="28" fill="url(#bg)" stroke="#DED7C8" stroke-width="2"/>

  <g transform="translate(84.0 168.0) scale(1.21326)">
    <path fill="#1F1B16" d="M27.85 -92.25V-7.8Q27.85 -6.25 28.35 -5.46Q28.85 -4.67 29.88 -4.36L32.66 -3.75Q33.63 -3.51 34.05 -3.01Q34.48 -2.52 34.48 -1.81Q34.48 -1.01 33.86 -0.5Q33.25 0 32 0H6.63Q5.41 0 4.81 -0.5Q4.22 -1.01 4.22 -1.81Q4.22 -2.52 4.65 -2.99Q5.08 -3.47 6 -3.77L8.86 -4.36Q9.89 -4.74 10.38 -5.47Q10.87 -6.21 10.87 -7.8V-83.11Q10.87 -84.28 10.48 -84.79Q10.09 -85.3 9.25 -85.42L5.54 -85.58Q4.73 -85.77 4.36 -86.18Q4 -86.58 4 -87.21Q4 -87.96 4.45 -88.42Q4.91 -88.89 6.05 -89.31L20.28 -93.95Q22.11 -94.62 23.14 -94.87Q24.18 -95.12 24.95 -95.12Q26.44 -95.12 27.14 -94.32Q27.85 -93.52 27.85 -92.25Z M70.94 -60.4Q80.3 -60.4 87.44 -56.45Q94.59 -52.49 98.59 -45.5Q102.6 -38.51 102.6 -29.27Q102.6 -20.41 98.48 -13.44Q94.35 -6.48 87.06 -2.5Q79.77 1.48 70.25 1.48Q60.9 1.48 53.79 -2.46Q46.68 -6.4 42.66 -13.37Q38.64 -20.35 38.64 -29.46Q38.64 -38.42 42.76 -45.39Q46.87 -52.37 54.15 -56.38Q61.43 -60.4 70.94 -60.4ZM74.95 -3.17Q79.2 -3.76 81.8 -7.12Q84.41 -10.48 85.17 -16.58Q85.94 -22.68 84.57 -31.36Q83.25 -40.01 80.63 -45.66Q78.01 -51.31 74.34 -53.83Q70.68 -56.35 66.32 -55.73Q62.03 -55.12 59.43 -51.73Q56.84 -48.34 56.13 -42.25Q55.42 -36.17 56.74 -27.54Q58.07 -18.94 60.72 -13.29Q63.38 -7.64 67.02 -5.1Q70.67 -2.55 74.95 -3.17Z M140.06 -60.4Q149.42 -60.4 156.56 -56.45Q163.71 -52.49 167.71 -45.5Q171.72 -38.51 171.72 -29.27Q171.72 -20.41 167.6 -13.44Q163.47 -6.48 156.18 -2.5Q148.89 1.48 139.37 1.48Q130.02 1.48 122.91 -2.46Q115.8 -6.4 111.78 -13.37Q107.76 -20.35 107.76 -29.46Q107.76 -38.42 111.88 -45.39Q115.99 -52.37 123.27 -56.38Q130.55 -60.4 140.06 -60.4ZM144.07 -3.17Q148.32 -3.76 150.92 -7.12Q153.53 -10.48 154.29 -16.58Q155.06 -22.68 153.69 -31.36Q152.37 -40.01 149.75 -45.66Q147.13 -51.31 143.46 -53.83Q139.8 -56.35 135.44 -55.73Q131.15 -55.12 128.55 -51.73Q125.96 -48.34 125.25 -42.25Q124.54 -36.17 125.86 -27.54Q127.19 -18.94 129.84 -13.29Q132.5 -7.64 136.14 -5.1Q139.79 -2.55 144.07 -3.17Z"/>
    <path fill="url(#weaveWm)" d="M200.66 -57.26V-7.77Q200.66 -6.28 201.19 -5.48Q201.71 -4.69 202.72 -4.34L205.49 -3.75Q206.97 -3.14 206.97 -1.95Q206.97 0 204.47 0H179.47Q178.22 0 177.62 -0.5Q177.03 -1.01 177.03 -1.81Q177.03 -2.52 177.46 -2.98Q177.89 -3.45 178.76 -3.75L181.67 -4.36Q182.7 -4.74 183.19 -5.46Q183.68 -6.19 183.68 -7.7V-48.07Q183.68 -49.27 183.29 -49.83Q182.9 -50.4 182.06 -50.52L178.3 -50.68Q177.54 -50.83 177.16 -51.23Q176.79 -51.62 176.79 -52.29Q176.79 -53.03 177.24 -53.48Q177.7 -53.92 178.87 -54.34L193.12 -59.01Q194.86 -59.62 195.88 -59.89Q196.91 -60.16 197.84 -60.16Q199.25 -60.16 199.96 -59.34Q200.66 -58.53 200.66 -57.26ZM198.97 -43.63 196.9 -45.75 199.3 -47.94Q206.79 -54.91 212.52 -57.65Q218.25 -60.38 223.22 -60.38Q230.76 -60.38 235.35 -55.63Q239.95 -50.89 239.95 -42.22V-7.87Q239.95 -6.22 240.49 -5.43Q241.04 -4.64 242.11 -4.31L244.43 -3.71Q245.94 -3.14 245.94 -1.95Q245.94 0 243.37 0H219.1Q216.65 0 216.65 -1.95Q216.65 -3.14 218.12 -3.75L220.82 -4.31Q222.04 -4.71 222.54 -5.59Q223.05 -6.46 223.05 -8.18V-39.98Q223.05 -45.52 220.4 -48.3Q217.76 -51.08 213.35 -51.08Q210.44 -51.08 207.48 -49.84Q204.52 -48.59 201.42 -45.79ZM238.13 -43.63 236 -45.75 238.37 -48.04Q245.17 -54.63 250.4 -57.51Q255.62 -60.38 260.62 -60.38Q267.78 -60.38 271.97 -55.61Q276.17 -50.85 277.11 -42.19L281.12 -7.91Q281.33 -6.24 281.83 -5.41Q282.33 -4.58 283.4 -4.29L285.71 -3.72Q286.56 -3.42 286.97 -2.97Q287.37 -2.52 287.37 -1.81Q287.37 -1.01 286.82 -0.5Q286.27 0 285.02 0H259.89Q257.44 0 257.44 -1.95Q257.44 -3.12 258.95 -3.75L261.61 -4.31Q262.87 -4.69 263.47 -5.59Q264.06 -6.49 263.83 -8.23L260.21 -39.98Q259.55 -45.45 257.36 -48.27Q255.18 -51.08 251.02 -51.08Q248.56 -51.08 245.96 -49.77Q243.36 -48.45 240.42 -45.87Z M345.57 -36.1Q345.57 -33.76 344.21 -32.45Q342.85 -31.13 340.25 -31.13H300.34V-34.66H326.05Q328.52 -34.66 328.52 -36.99Q328.52 -46.52 325.46 -51.27Q322.4 -56.01 317.53 -56.01Q313.67 -56.01 310.77 -53.59Q307.87 -51.16 306.25 -46.44Q304.64 -41.72 304.64 -34.83Q304.64 -22.16 310.35 -15.8Q316.06 -9.45 325.4 -9.45Q331.39 -9.45 335.76 -12.24Q340.12 -15.03 341.87 -19.95Q342.59 -20.84 343.07 -21.16Q343.55 -21.47 343.99 -21.47Q344.7 -21.47 345.06 -20.85Q345.41 -20.22 345.35 -19.25Q345.04 -13.53 341.6 -8.79Q338.16 -4.06 332.32 -1.29Q326.47 1.48 318.98 1.48Q310.21 1.48 303.47 -2.21Q296.74 -5.89 292.91 -12.59Q289.08 -19.29 289.08 -28.21Q289.08 -37.76 292.81 -44.98Q296.55 -52.21 303.42 -56.3Q310.29 -60.4 319.71 -60.4Q327.77 -60.4 333.57 -57.27Q339.37 -54.15 342.47 -48.65Q345.57 -43.15 345.57 -36.1Z M374.23 -57.26V-7.77Q374.23 -6.28 374.75 -5.48Q375.28 -4.69 376.29 -4.34L379.05 -3.75Q380.54 -3.14 380.54 -1.95Q380.54 0 378.04 0H353.03Q351.79 0 351.19 -0.5Q350.6 -1.01 350.6 -1.81Q350.6 -2.52 351.03 -2.98Q351.46 -3.45 352.33 -3.75L355.24 -4.36Q356.27 -4.74 356.76 -5.46Q357.25 -6.19 357.25 -7.7V-48.07Q357.25 -49.27 356.86 -49.83Q356.47 -50.4 355.63 -50.52L351.87 -50.68Q351.11 -50.83 350.73 -51.23Q350.35 -51.62 350.35 -52.29Q350.35 -53.03 350.81 -53.48Q351.27 -53.92 352.43 -54.34L366.68 -59.01Q368.42 -59.62 369.45 -59.89Q370.48 -60.16 371.41 -60.16Q372.82 -60.16 373.52 -59.34Q374.23 -58.53 374.23 -57.26ZM372.54 -43.63 370.47 -45.75 372.87 -47.94Q380.36 -54.91 386.09 -57.65Q391.82 -60.38 396.79 -60.38Q404.33 -60.38 408.92 -55.63Q413.51 -50.89 413.51 -42.22V-7.87Q413.51 -6.22 414.06 -5.43Q414.61 -4.64 415.68 -4.31L418 -3.71Q419.51 -3.14 419.51 -1.95Q419.51 0 416.94 0H392.67Q390.22 0 390.22 -1.95Q390.22 -3.14 391.69 -3.75L394.39 -4.31Q395.61 -4.71 396.11 -5.59Q396.61 -6.46 396.61 -8.18V-39.98Q396.61 -45.52 393.97 -48.3Q391.33 -51.08 386.91 -51.08Q384.01 -51.08 381.05 -49.84Q378.09 -48.59 374.99 -45.79ZM411.7 -43.63 409.57 -45.75 411.94 -48.04Q418.74 -54.63 423.97 -57.51Q429.19 -60.38 434.19 -60.38Q441.34 -60.38 445.54 -55.61Q449.74 -50.85 450.68 -42.19L454.69 -7.91Q454.9 -6.24 455.4 -5.41Q455.9 -4.58 456.97 -4.29L459.28 -3.72Q460.13 -3.42 460.53 -2.97Q460.94 -2.52 460.94 -1.81Q460.94 -1.01 460.39 -0.5Q459.84 0 458.59 0H433.46Q431.01 0 431.01 -1.95Q431.01 -3.12 432.52 -3.75L435.18 -4.31Q436.43 -4.69 437.03 -5.59Q437.63 -6.49 437.4 -8.23L433.78 -39.98Q433.12 -45.45 430.93 -48.27Q428.75 -51.08 424.59 -51.08Q422.13 -51.08 419.53 -49.77Q416.93 -48.45 413.99 -45.87Z"/>
  </g>

  <g transform="translate(88.0 232.0) scale(0.4)">
    <path fill="url(#weaveText)" d="M27.51 1.13Q23.18 1.13 20.33 0.27Q17.47 -0.59 15.72 -1.71Q13.97 -2.83 13.01 -3.69Q12.05 -4.54 11.44 -4.54Q10.87 -4.54 10.08 -3.78Q9.3 -3.01 8.37 -1.99Q7.44 -0.97 6.55 -0.18Q5.66 0.61 4.91 0.61Q3.74 0.61 3.19 -0.03Q2.63 -0.67 2.76 -2.01L5.14 -19.86Q5.29 -21.31 5.93 -22.02Q6.57 -22.74 7.56 -22.74Q8.5 -22.74 9.12 -22.06Q9.74 -21.39 10.21 -20.08L11.15 -14.96Q11.98 -9.08 15.8 -6.06Q19.61 -3.03 24.97 -3.03Q28.51 -3.03 31.19 -4.32Q33.87 -5.62 35.52 -7.95Q37.16 -10.29 37.6 -13.34Q38.39 -17.78 36.17 -21.59Q33.95 -25.4 27.44 -29.63Q20.03 -34.52 16.92 -39.38Q13.81 -44.23 14.55 -50.7Q15.16 -56.13 18.39 -60.79Q21.61 -65.46 27.4 -68.37Q33.2 -71.28 41.29 -71.28Q48.21 -71.28 52.87 -69.05Q57.53 -66.82 59.86 -63.32Q62.2 -59.82 62.08 -55.92Q61.97 -53.33 60.67 -51.66Q59.36 -49.98 57.12 -49.98Q55.27 -49.98 54.14 -51.07Q53 -52.17 52.27 -54.48L51.37 -58.26Q50.19 -63.01 47.41 -65.27Q44.63 -67.54 40.5 -67.54Q36.41 -67.54 33.35 -65.92Q30.29 -64.31 28.49 -61.61Q26.68 -58.9 26.3 -55.6Q25.68 -50.83 28.1 -46.92Q30.51 -43 36.86 -38.53Q42.57 -34.58 45.65 -31.1Q48.73 -27.63 49.76 -24.13Q50.8 -20.63 50.3 -16.63Q49.79 -11.28 46.73 -7.31Q43.67 -3.33 38.71 -1.1Q33.74 1.13 27.51 1.13Z M109.72 -46.77Q111.85 -46.65 112.52 -43.9Q113.18 -41.16 111.74 -35.62Q109.22 -25.66 105.57 -18.65Q101.93 -11.65 97.38 -7.29Q92.84 -2.94 87.58 -0.94Q82.33 1.06 76.58 1.06Q71.19 1.06 68.35 -1.31Q65.5 -3.67 65.59 -8.28Q65.68 -12.26 67.38 -15.63Q69.08 -19 71.66 -21.88Q74.25 -24.76 77.01 -27.32Q79.77 -29.88 82.01 -32.23Q84.25 -34.59 85.23 -36.87L84.92 -34.82Q82.15 -34.82 79.61 -35.44Q77.08 -36.06 74.76 -36.86Q72.44 -37.66 70.29 -38.31Q68.14 -38.95 66.23 -38.97Q64.21 -39.03 63.12 -38.11Q62.03 -37.19 61.97 -35.85Q61.88 -34.22 64.07 -33.03Q65.48 -32.34 66.11 -31.59Q66.75 -30.84 66.73 -29.64Q66.68 -28.04 65.58 -27.13Q64.48 -26.23 63.01 -26.23Q60.57 -26.23 59.04 -28.27Q57.52 -30.31 57.67 -33.99Q57.86 -37.6 59.53 -40.48Q61.2 -43.37 64.15 -45.04Q67.11 -46.72 70.99 -46.72Q73.07 -46.72 75.26 -46.22Q77.46 -45.72 79.48 -45.22Q81.49 -44.72 82.94 -44.72Q84.54 -44.72 85.36 -45.23Q86.17 -45.74 86.87 -46.25Q87.56 -46.76 88.64 -46.71Q89.76 -46.66 90.38 -45.83Q91 -45.01 90.82 -43.38Q90.43 -41.08 89.22 -38.38Q88 -35.68 86.45 -32.66Q84.89 -29.63 83.4 -26.32Q81.9 -23.01 80.93 -19.44Q79.95 -15.87 79.95 -12.07Q79.95 -8.48 81.41 -6.88Q82.86 -5.28 85.61 -5.28Q88.37 -5.28 91.42 -6.85Q94.47 -8.43 97.64 -11.91Q100.8 -15.39 103.88 -21.04Q106.96 -26.7 109.67 -34.76Q107.46 -25.71 106.77 -19.78Q106.08 -13.86 106.57 -10.5Q107.05 -7.14 108.47 -5.78Q109.88 -4.42 111.81 -4.42Q113.92 -4.42 116.16 -5.8Q118.4 -7.19 120.46 -9.75Q122.52 -12.32 124.16 -15.9Q125.81 -19.48 126.69 -23.83Q127.17 -26.23 127.03 -28.2Q126.89 -30.18 126.25 -31.74Q125.62 -33.3 124.55 -34.55Q123.26 -35.86 122.6 -37.29Q121.94 -38.73 122.01 -40.5Q122.07 -42.06 122.89 -43.47Q123.71 -44.87 125.13 -45.78Q126.55 -46.68 128.43 -46.68Q132.32 -46.68 133.91 -42.61Q135.51 -38.53 134.47 -31.1Q133.55 -24.36 131.08 -18.52Q128.6 -12.69 125 -8.29Q121.41 -3.89 117.08 -1.41Q112.75 1.06 108.15 1.06Q103.71 1.06 100.91 -1.19Q98.11 -3.45 97.08 -7.92Q96.04 -12.4 96.76 -19.01Q97.47 -25.62 99.91 -34.34Q101.82 -41.06 104.36 -43.99Q106.9 -46.92 109.72 -46.77Z M176.98 -13.45Q175.92 -9.32 176.25 -7.78Q176.58 -6.25 177.77 -6.25Q178.66 -6.25 179.56 -6.81Q180.46 -7.38 181.83 -8.74Q182.62 -9.47 183.12 -9.66Q183.62 -9.84 184.11 -9.58Q184.68 -9.33 184.67 -8.56Q184.67 -7.78 184.09 -6.62Q182.16 -3.11 178.64 -1.02Q175.12 1.06 171.28 1.06Q168.16 1.06 166.7 -0.46Q165.25 -1.98 165.25 -4.87Q165.25 -5.98 165.43 -7.4Q165.61 -8.82 166.05 -10.79Q166.48 -12.76 167.27 -15.54Q168.05 -18.32 169.25 -22.15L170.16 -20.36Q167.67 -13.61 164.03 -8.82Q160.39 -4.02 156.05 -1.48Q151.71 1.06 147.03 1.06Q141.55 1.06 138.61 -2.61Q135.67 -6.28 136.49 -14.08Q136.94 -19 138.97 -23.76Q141 -28.51 144.34 -32.68Q147.67 -36.84 152.08 -39.99Q156.48 -43.14 161.7 -44.91Q166.91 -46.68 172.71 -46.68Q177.25 -46.68 180.28 -46.04Q183.32 -45.39 184.84 -44.33Q186.36 -43.26 186.23 -41.98Q186.15 -40.9 185.49 -40.34Q184.84 -39.79 184.16 -39.2Q183.48 -38.62 183.16 -37.53ZM148.47 -14.18Q147.97 -9.2 149.19 -7.14Q150.41 -5.09 152.62 -5.09Q154.65 -5.09 156.95 -6.74Q159.25 -8.39 161.59 -11.38Q163.93 -14.37 166.03 -18.37Q168.12 -22.36 169.76 -27.17Q171.4 -31.97 172.31 -37.2Q172.85 -39.98 172.19 -41.26Q171.53 -42.55 169.78 -42.55Q166.87 -42.55 163.98 -40.94Q161.09 -39.33 158.5 -36.51Q155.92 -33.68 153.78 -30.06Q151.65 -26.44 150.27 -22.37Q148.89 -18.31 148.47 -14.18Z M215.9 -50.4 197.83 14.65Q197.3 16.71 197.59 17.74Q197.88 18.78 199.63 19.05L202.87 19.6Q204.05 19.81 204.53 20.29Q205.01 20.76 205.01 21.46Q205.01 22.32 204.3 22.86Q203.59 23.4 202.36 23.44L181.13 23.92Q180.12 23.96 179.55 23.49Q178.99 23.01 178.99 22.29Q178.99 21.55 179.45 21.01Q179.91 20.46 181.04 19.96Q182.69 19.44 183.62 18.93Q184.56 18.41 185.1 17.63Q185.64 16.85 185.99 15.61L204.66 -49.37Q205.02 -50.63 205.73 -51.64Q206.43 -52.65 207.42 -53.45Q208.42 -54.24 209.47 -54.79Q210.52 -55.34 211.56 -55.65Q212.61 -55.95 213.45 -55.95Q215.46 -55.95 216.07 -54.6Q216.68 -53.24 215.9 -50.4ZM195.43 -33.27Q194.7 -32.61 193.82 -32.46Q192.95 -32.3 192.38 -32.86Q191.76 -33.47 192.06 -34.48Q192.36 -35.48 193.35 -36.38Q196.72 -39.8 200.74 -42.17Q204.77 -44.54 209.5 -45.75Q214.23 -46.96 219.6 -46.8Q226.11 -46.6 230.51 -43.79Q234.92 -40.98 236.86 -35.78Q238.8 -30.59 237.8 -23.17Q236.82 -15.7 233.12 -10.2Q229.42 -4.69 223.95 -1.74Q218.47 1.22 212.1 1.03Q206.77 0.89 203.39 -1.29Q200.01 -3.48 198.73 -7.18L201.83 -8.66Q203.07 -6.25 204.93 -4.97Q206.79 -3.68 209.39 -3.54Q213.04 -3.35 216.37 -5.6Q219.69 -7.84 222.2 -12.56Q224.71 -17.28 225.83 -24.48Q226.72 -30.35 225.89 -34.3Q225.05 -38.24 222.89 -40.36Q220.72 -42.47 217.51 -42.75Q212.21 -43.17 206.63 -40.95Q201.05 -38.73 195.43 -33.27Z M268.06 -40.28 264.38 -41.04Q263.58 -41.3 263.19 -41.82Q262.8 -42.35 262.8 -43Q262.8 -43.91 263.56 -44.43Q264.32 -44.96 265.57 -44.96H269.78Q270.98 -44.96 271.9 -45.43Q272.82 -45.9 273.68 -46.83L280.11 -54.35Q280.81 -55.13 281.51 -55.42Q282.21 -55.71 283.01 -55.71Q283.96 -55.71 284.42 -55.23Q284.87 -54.74 284.87 -53.87Q284.87 -53.35 284.72 -52.45Q284.56 -51.55 284.21 -50.4L273.49 -14.38Q272.09 -9.63 272.83 -8Q273.57 -6.37 276.07 -6.37Q278.14 -6.37 280.05 -7.4Q281.96 -8.44 284.07 -10.82Q284.65 -11.46 285.07 -11.71Q285.49 -11.96 285.98 -11.95Q286.55 -11.95 286.88 -11.54Q287.22 -11.12 287.09 -10.38Q286.73 -8.55 285.2 -6.54Q283.67 -4.53 281.21 -2.8Q278.74 -1.08 275.57 -0.01Q272.39 1.06 268.69 1.06Q264.85 1.06 262.87 -0.48Q260.9 -2.01 260.7 -5.08Q260.49 -8.15 261.86 -12.76L268.82 -35.58Q269.59 -38.05 269.39 -39.01Q269.2 -39.97 268.06 -40.28ZM278.08 -40.51 279.49 -44.78H292.29Q294.05 -44.78 294.05 -43.26Q294.05 -41.96 292.95 -41.23Q291.84 -40.51 289.94 -40.51Z M306.83 -18.23Q308.63 -23.36 311.02 -27.2Q313.41 -31.05 315.98 -33.64Q318.56 -36.23 321.02 -37.54Q323.48 -38.85 325.41 -38.85Q327.93 -38.85 328.42 -36.93Q328.91 -35.01 327.28 -30.28L320.7 -11.02Q319.37 -7.19 319.44 -4.49Q319.52 -1.79 321.18 -0.36Q322.84 1.06 326.12 1.06Q330.66 1.06 334.23 -1.04Q337.79 -3.15 339.72 -6.71Q340.3 -7.87 340.3 -8.64Q340.31 -9.41 339.74 -9.67Q339.26 -9.92 338.75 -9.74Q338.25 -9.56 337.46 -8.82Q336.09 -7.42 335.14 -6.87Q334.19 -6.33 333.39 -6.33Q332.1 -6.33 331.72 -7.86Q331.33 -9.4 332.74 -13.36L339.21 -32.14Q340.74 -36.58 340.85 -39.84Q340.95 -43.1 339.15 -44.89Q337.35 -46.68 333.24 -46.68Q329.48 -46.68 324.84 -44.67Q320.2 -42.66 315.59 -38.01Q310.97 -33.36 307.21 -25.4L308.08 -25.09L316.13 -53.54Q317.44 -58.2 319.29 -61.15Q321.14 -64.1 323.47 -65.52Q325.8 -66.93 328.46 -66.93Q330.24 -66.93 331.87 -65.93Q333.51 -64.92 335.11 -63.6Q336.71 -62.28 338.45 -61.28Q340.19 -60.27 342.09 -60.27Q344.96 -60.27 346.55 -61.83Q348.15 -63.39 348.15 -65.67Q348.15 -68.42 345.18 -70.2Q342.2 -71.99 336.22 -71.99Q327.32 -71.99 320.78 -69.16Q314.23 -66.33 309.89 -60.79Q305.56 -55.25 303.19 -47L291.96 -7.07Q291.24 -4.46 291.26 -2.63Q291.27 -0.8 292.25 0.13Q293.23 1.06 295.38 1.06Q299.88 1.06 302.51 -0.25Q305.14 -1.57 305.14 -3.71Q305.14 -5.01 304.76 -5.94Q304.38 -6.87 304.38 -8.19Q304.38 -9.14 304.66 -10.57Q304.93 -12 305.48 -13.94Q306.03 -15.88 306.83 -18.23Z M352.34 -20.77Q352.34 -20.77 354.18 -21.44Q356.01 -22.12 358.96 -23.17Q361.91 -24.22 365.28 -25.44Q368.65 -26.65 371.84 -27.81Q375.03 -28.98 377.32 -29.8L376.06 -28.22Q376.48 -29.56 376.75 -31.32Q377.01 -33.09 377.01 -35.5Q377.02 -38.73 375.74 -40.8Q374.45 -42.88 372.26 -42.88Q370.07 -42.88 367.77 -41.21Q365.47 -39.55 363.47 -36.56Q361.47 -33.57 360.08 -29.53Q358.69 -25.48 358.28 -20.72Q357.64 -13.34 360.32 -9.57Q363 -5.8 368.2 -5.8Q371.17 -5.8 373.91 -6.93Q376.66 -8.07 378.9 -10.25Q381.14 -12.43 382.55 -15.56Q383.33 -16.65 383.9 -17.03Q384.46 -17.41 385.11 -17.4Q385.94 -17.35 386.39 -16.67Q386.84 -15.98 386.48 -14.46Q385.47 -10.36 382.45 -6.8Q379.42 -3.23 374.52 -1.09Q369.63 1.06 362.84 1.06Q356.9 1.06 353.01 -1.18Q349.13 -3.42 347.41 -7.58Q345.69 -11.74 346.15 -17.61Q346.65 -23.52 349.05 -28.78Q351.45 -34.05 355.32 -38.1Q359.18 -42.16 364.08 -44.46Q368.97 -46.77 374.41 -46.77Q378.57 -46.77 381.33 -45.16Q384.09 -43.56 385.53 -40.89Q386.96 -38.22 387.21 -34.97Q387.28 -34.16 387.62 -33.63Q387.97 -33.1 388.64 -33.05Q389.32 -33.06 389.66 -32.76Q389.99 -32.45 389.99 -31.83Q390 -31.1 389.38 -30.45Q388.75 -29.8 386.99 -29.25Q385.14 -28.63 381.9 -27.53Q378.67 -26.42 374.81 -25.11Q370.95 -23.8 367.06 -22.44Q363.17 -21.09 359.93 -20Q356.69 -18.9 354.7 -18.22Q352.72 -17.53 352.72 -17.53Z M438.32 -8.37 445.82 -30.28Q447.4 -34.92 446.91 -36.88Q446.42 -38.85 444.23 -38.85Q441.78 -38.85 438.45 -36.59Q435.12 -34.34 431.8 -29.77Q428.48 -25.2 426.02 -18.27Q424.98 -15.32 424.36 -13.39Q423.75 -11.45 423.48 -10.26Q423.22 -9.07 423.22 -8.26Q423.22 -6.95 423.66 -6.05Q424.1 -5.14 424.1 -3.83Q424.1 -1.6 421.52 -0.27Q418.93 1.06 414.44 1.06Q411.07 1.06 410.38 -1.28Q409.69 -3.62 411.4 -8.46L419.76 -32.2Q421.14 -36.06 420.79 -37.61Q420.43 -39.16 419.12 -39.16Q418.32 -39.16 417.36 -38.62Q416.41 -38.08 414.99 -36.64Q414.2 -35.98 413.7 -35.8Q413.2 -35.61 412.7 -35.82Q412.14 -36.08 412.15 -36.84Q412.15 -37.59 412.72 -38.72Q414.75 -42.39 418.42 -44.54Q422.09 -46.68 426.54 -46.68Q429.44 -46.68 431.07 -45.42Q432.7 -44.15 432.7 -41.68Q432.7 -40.14 432.08 -38.18Q431.47 -36.22 430.43 -33.67Q429.4 -31.13 428.06 -27.89Q426.73 -24.64 425.33 -20.48L424.91 -22.05Q428.68 -31.3 433.52 -36.68Q438.35 -42.06 443.26 -44.37Q448.17 -46.68 452.11 -46.68Q455.78 -46.68 457.61 -45.21Q459.44 -43.73 459.31 -40.73Q459.31 -39.3 458.76 -37.53Q458.21 -35.75 457.26 -33.37Q456.32 -31 455.08 -27.86Q453.85 -24.71 452.44 -20.49L451.72 -22.07Q454.55 -28.94 457.98 -33.66Q461.4 -38.37 465.08 -41.25Q468.75 -44.12 472.27 -45.4Q475.78 -46.68 478.79 -46.68Q482.64 -46.68 484.37 -44.91Q486.1 -43.14 486.07 -39.88Q486.05 -36.62 484.47 -32.14L478.04 -13.36Q476.69 -9.39 477.09 -7.86Q477.49 -6.33 478.73 -6.33Q479.62 -6.33 480.55 -6.87Q481.48 -7.42 482.8 -8.82Q483.63 -9.56 484.16 -9.74Q484.69 -9.92 485.13 -9.67Q485.7 -9.41 485.69 -8.64Q485.69 -7.87 485.06 -6.71Q483.17 -3.15 479.61 -1.04Q476.05 1.06 471.51 1.06Q468.23 1.06 466.6 -0.36Q464.96 -1.79 464.86 -4.49Q464.76 -7.19 466.04 -11.02L472.62 -30.28Q474.28 -34.92 473.74 -36.88Q473.19 -38.85 470.99 -38.85Q468.59 -38.85 465.27 -36.57Q461.96 -34.3 458.69 -29.75Q455.42 -25.21 452.95 -18.27Q451.91 -15.33 451.28 -13.39Q450.65 -11.44 450.4 -10.24Q450.16 -9.04 450.16 -8.24Q450.16 -6.92 450.57 -6.02Q450.99 -5.12 450.99 -3.81Q450.99 -1.59 448.4 -0.26Q445.82 1.08 441.38 1.08Q439.12 1.08 438.08 0.04Q437.03 -0.99 437.12 -3.08Q437.21 -5.18 438.32 -8.37Z M519.76 -46.75Q526.19 -46.64 530.67 -43.77Q535.14 -40.9 537.07 -35.7Q538.99 -30.49 537.72 -23.3Q536.78 -17.86 534.25 -13.33Q531.73 -8.8 527.97 -5.54Q524.2 -2.28 519.52 -0.55Q514.84 1.18 509.48 1.06Q503.23 0.93 498.79 -1.89Q494.35 -4.71 492.41 -9.92Q490.47 -15.13 491.71 -22.32Q492.71 -27.88 495.23 -32.41Q497.76 -36.94 501.48 -40.21Q505.2 -43.48 509.87 -45.19Q514.53 -46.9 519.76 -46.75ZM509.53 -3.15Q511.52 -2.93 513.44 -3.83Q515.36 -4.73 517.16 -6.55Q518.95 -8.37 520.49 -11Q522.02 -13.64 523.22 -16.99Q524.42 -20.35 525.19 -24.32Q526.38 -30.25 526.05 -34.21Q525.71 -38.16 524.11 -40.22Q522.51 -42.28 519.81 -42.55Q517.81 -42.78 515.91 -41.89Q514.02 -41 512.25 -39.19Q510.48 -37.37 508.95 -34.72Q507.42 -32.08 506.23 -28.69Q505.04 -25.31 504.27 -21.29Q503.02 -15.32 503.36 -11.38Q503.7 -7.45 505.32 -5.42Q506.94 -3.39 509.53 -3.15Z M585.46 -39.39 578.83 -38.3Q578.4 -40.46 577.18 -41.6Q575.95 -42.74 573.41 -42.74Q570.46 -42.74 567.53 -41Q564.6 -39.27 562 -36.28Q559.4 -33.28 557.34 -29.51Q555.28 -25.73 554.04 -21.57Q552.8 -17.41 552.61 -13.4Q552.38 -8.92 553.74 -7.03Q555.11 -5.14 557.36 -5.14Q559.31 -5.14 561.66 -6.73Q564 -8.33 566.44 -11.22Q568.88 -14.11 570.99 -18.02Q573.11 -21.93 574.49 -26.56L583.64 -57.47Q585.88 -65.03 590.34 -68.51Q594.81 -71.99 601.05 -71.99Q605.28 -71.99 607.32 -70.34Q609.36 -68.69 609.36 -66.38Q609.36 -63.99 607.95 -62.46Q606.55 -60.93 603.88 -60.93Q602.33 -60.93 601.15 -61.52Q599.97 -62.11 598.96 -62.93Q597.95 -63.75 596.88 -64.34Q595.8 -64.93 594.5 -64.93Q592.42 -64.93 590.96 -63.33Q589.5 -61.74 589.32 -59.41Q589.28 -58.23 589.65 -57.06Q590.01 -55.9 590.55 -54.66Q591.08 -53.42 591.48 -52.01Q591.88 -50.59 591.93 -48.85Q591.98 -47.1 591.36 -44.97L582.1 -13.4Q580.94 -9.34 581.27 -7.79Q581.6 -6.25 582.88 -6.25Q583.73 -6.25 584.65 -6.79Q585.57 -7.34 586.94 -8.74Q587.74 -9.47 588.26 -9.66Q588.78 -9.84 589.27 -9.58Q589.84 -9.33 589.84 -8.56Q589.84 -7.78 589.21 -6.62Q587.98 -4.26 585.97 -2.55Q583.97 -0.85 581.53 0.11Q579.1 1.06 576.48 1.06Q573.37 1.06 571.82 -0.48Q570.27 -2.03 570.27 -4.87Q570.27 -6.32 570.64 -8.28Q571.01 -10.25 571.8 -13.23Q572.6 -16.22 573.91 -20.64L575.39 -19.91Q572.33 -12.93 568.46 -8.26Q564.58 -3.58 560.34 -1.26Q556.11 1.06 551.91 1.06Q548.02 1.06 545.34 -0.65Q542.66 -2.35 541.49 -5.82Q540.31 -9.29 540.86 -14.67Q541.38 -20.99 544.27 -26.75Q547.17 -32.52 551.8 -37.02Q556.43 -41.51 562.24 -44.1Q568.05 -46.68 574.41 -46.68Q577.92 -46.68 580.3 -45.75Q582.68 -44.82 583.96 -43.16Q585.24 -41.5 585.46 -39.39Z M600.69 -20.77Q600.69 -20.77 602.53 -21.44Q604.36 -22.12 607.31 -23.17Q610.26 -24.22 613.63 -25.44Q617 -26.65 620.19 -27.81Q623.38 -28.98 625.67 -29.8L624.41 -28.22Q624.83 -29.56 625.1 -31.32Q625.36 -33.09 625.36 -35.5Q625.37 -38.73 624.09 -40.8Q622.8 -42.88 620.61 -42.88Q618.42 -42.88 616.12 -41.21Q613.82 -39.55 611.82 -36.56Q609.82 -33.57 608.43 -29.53Q607.04 -25.48 606.63 -20.72Q605.99 -13.34 608.67 -9.57Q611.35 -5.8 616.55 -5.8Q619.52 -5.8 622.26 -6.93Q625.01 -8.07 627.25 -10.25Q629.49 -12.43 630.9 -15.56Q631.68 -16.65 632.25 -17.03Q632.81 -17.41 633.46 -17.4Q634.29 -17.35 634.74 -16.67Q635.19 -15.98 634.83 -14.46Q633.82 -10.36 630.8 -6.8Q627.77 -3.23 622.87 -1.09Q617.98 1.06 611.19 1.06Q605.25 1.06 601.36 -1.18Q597.48 -3.42 595.76 -7.58Q594.04 -11.74 594.5 -17.61Q595 -23.52 597.4 -28.78Q599.8 -34.05 603.67 -38.1Q607.53 -42.16 612.43 -44.46Q617.32 -46.77 622.76 -46.77Q626.92 -46.77 629.68 -45.16Q632.44 -43.56 633.88 -40.89Q635.31 -38.22 635.56 -34.97Q635.63 -34.16 635.97 -33.63Q636.32 -33.1 636.99 -33.05Q637.67 -33.06 638.01 -32.76Q638.34 -32.45 638.34 -31.83Q638.35 -31.1 637.73 -30.45Q637.1 -29.8 635.34 -29.25Q633.49 -28.63 630.25 -27.53Q627.02 -26.42 623.16 -25.11Q619.3 -23.8 615.41 -22.44Q611.52 -21.09 608.28 -20Q605.04 -18.9 603.05 -18.22Q601.07 -17.53 601.07 -17.53Z M672.31 -71.99Q676.56 -71.99 678.59 -70.28Q680.62 -68.58 680.62 -66.18Q680.62 -63.94 679.29 -62.54Q677.95 -61.14 675.32 -61.14Q673.73 -61.14 672.55 -61.71Q671.38 -62.27 670.31 -63.01Q669.25 -63.75 668.18 -64.32Q667.1 -64.88 665.72 -64.88Q664.34 -64.88 663.2 -64.13Q662.06 -63.37 661.35 -62.11Q660.65 -60.85 660.52 -59.3Q660.48 -58.11 660.87 -56.93Q661.26 -55.75 661.78 -54.48Q662.31 -53.22 662.73 -51.78Q663.15 -50.35 663.18 -48.58Q663.21 -46.81 662.54 -44.66L653.16 -14.03Q651.82 -9.54 652.2 -8Q652.59 -6.46 654.18 -6.46Q655.49 -6.46 656.96 -7.25Q658.44 -8.05 659.84 -9.7Q660.47 -10.34 660.93 -10.51Q661.39 -10.68 661.83 -10.5Q662.45 -10.29 662.55 -9.56Q662.65 -8.83 662.07 -7.62Q661 -5.19 658.7 -3.2Q656.4 -1.22 653.3 -0.08Q650.21 1.06 646.75 1.06Q643.31 1.06 641.63 -0.33Q639.94 -1.71 639.85 -4.52Q639.75 -7.33 641.03 -11.52L655.14 -57.48Q657.47 -65.04 661.81 -68.51Q666.16 -71.99 672.31 -71.99Z M684.47 -26.23Q684.82 -27.44 685.47 -28.12Q686.12 -28.8 687.23 -28.8H758.85Q759.9 -28.8 760.24 -28.12Q760.57 -27.44 760.23 -26.18Q759.97 -25.02 759.3 -24.32Q758.62 -23.62 757.52 -23.62H685.91Q684.85 -23.62 684.53 -24.32Q684.21 -25.02 684.47 -26.23Z M810.57 -28.87Q814.13 -38.31 817.86 -42.6Q821.6 -46.89 825.96 -46.89Q828.34 -46.89 829.66 -45.49Q830.99 -44.09 830.99 -41.74Q830.99 -38.9 829.21 -36.93Q827.43 -34.97 824.33 -33.74Q822.38 -33.13 820.72 -32.19Q819.06 -31.24 817.54 -29.59Q816.02 -27.95 814.52 -25.3Q813.01 -22.66 811.44 -18.62L802.64 3.41Q799.69 11.25 795.92 15.95Q792.16 20.65 787.41 22.7Q782.65 24.75 776.78 24.75Q771.27 24.75 768.41 22.66Q765.56 20.57 765.56 17.27Q765.56 15.01 767 13.39Q768.45 11.77 770.76 11.77Q772.39 11.77 773.54 12.61Q774.69 13.44 775.61 14.63Q776.52 15.81 777.45 17.04Q778.38 18.27 779.53 19.08Q780.68 19.89 782.3 19.89Q784.34 19.89 786.13 18.85Q787.91 17.8 789.24 15.93Q790.57 14.06 791.33 11.6Q792.09 9.15 792.09 6.29Q792.14 4.36 792.02 1.28Q791.9 -1.8 791.67 -5.6Q791.45 -9.4 791.15 -13.49Q790.86 -17.57 790.54 -21.56Q790.22 -25.55 789.88 -28.95Q789.53 -32.36 789.21 -34.75Q789.02 -37.06 788.4 -38.14Q787.77 -39.21 786.78 -39.21Q785.99 -39.21 785.22 -38.68Q784.45 -38.16 783.45 -36.71Q782.92 -36.04 782.5 -35.82Q782.08 -35.61 781.6 -35.75Q781.11 -35.89 780.85 -36.5Q780.59 -37.12 781 -38.29Q781.9 -40.82 783.68 -42.73Q785.46 -44.63 787.89 -45.7Q790.32 -46.76 793.06 -46.76Q796.12 -46.76 797.98 -44.72Q799.84 -42.69 800.19 -38.49Q800.38 -36.5 800.56 -32.97Q800.74 -29.45 800.9 -25.01Q801.05 -20.56 801.19 -15.82Q801.33 -11.07 801.42 -6.62Q801.51 -2.16 801.56 1.41L800.04 0.5Z M855.16 -46.75Q861.59 -46.64 866.07 -43.77Q870.54 -40.9 872.47 -35.7Q874.39 -30.49 873.12 -23.3Q872.18 -17.86 869.65 -13.33Q867.13 -8.8 863.37 -5.54Q859.6 -2.28 854.92 -0.55Q850.24 1.18 844.88 1.06Q838.63 0.93 834.19 -1.89Q829.75 -4.71 827.81 -9.92Q825.87 -15.13 827.11 -22.32Q828.11 -27.88 830.63 -32.41Q833.16 -36.94 836.88 -40.21Q840.6 -43.48 845.27 -45.19Q849.93 -46.9 855.16 -46.75ZM844.93 -3.15Q846.92 -2.93 848.84 -3.83Q850.76 -4.73 852.56 -6.55Q854.35 -8.37 855.89 -11Q857.42 -13.64 858.62 -16.99Q859.82 -20.35 860.59 -24.32Q861.78 -30.25 861.45 -34.21Q861.11 -38.16 859.51 -40.22Q857.91 -42.28 855.21 -42.55Q853.21 -42.78 851.31 -41.89Q849.42 -41 847.65 -39.19Q845.88 -37.37 844.35 -34.72Q842.82 -32.08 841.63 -28.69Q840.44 -25.31 839.67 -21.29Q838.42 -15.32 838.76 -11.38Q839.1 -7.45 840.72 -5.42Q842.34 -3.39 844.93 -3.15Z M925.58 -9.8Q926.15 -9.55 926.14 -8.79Q926.14 -8.02 925.52 -6.9Q923.49 -3.24 919.82 -1.09Q916.15 1.06 911.75 1.06Q908.85 1.06 907.22 -0.21Q905.59 -1.48 905.59 -3.94Q905.59 -5.46 906.21 -7.45Q906.84 -9.45 907.87 -12.03Q908.91 -14.61 910.25 -17.85Q911.58 -21.08 912.96 -25.14L913.38 -23.57Q910.55 -16.65 907.03 -11.9Q903.52 -7.15 899.79 -4.29Q896.06 -1.43 892.49 -0.18Q888.92 1.06 885.92 1.06Q881.83 1.06 880.03 -0.73Q878.22 -2.52 878.3 -5.78Q878.38 -9.05 879.95 -13.49L886.42 -32.26Q887.78 -36.23 887.42 -37.76Q887.07 -39.29 885.77 -39.29Q884.98 -39.29 884.03 -38.75Q883.08 -38.21 881.71 -36.8Q880.91 -36.12 880.39 -35.93Q879.87 -35.75 879.38 -35.96Q878.81 -36.22 878.81 -36.99Q878.81 -37.76 879.44 -38.92Q881.37 -42.48 884.94 -44.58Q888.51 -46.68 892.99 -46.68Q896.32 -46.68 897.96 -45.26Q899.6 -43.84 899.7 -41.16Q899.8 -38.48 898.47 -34.61L891.84 -15.34Q890.16 -10.61 890.7 -8.69Q891.24 -6.78 893.76 -6.78Q895.63 -6.78 898.03 -8.05Q900.44 -9.32 903.03 -11.88Q905.62 -14.43 907.99 -18.29Q910.37 -22.14 912.22 -27.35Q913.3 -30.3 913.91 -32.24Q914.53 -34.17 914.77 -35.36Q915.02 -36.55 915.02 -37.36Q915.02 -38.68 914.6 -39.58Q914.19 -40.48 914.19 -41.8Q914.19 -44.01 916.77 -45.35Q919.35 -46.68 923.79 -46.68Q927.2 -46.68 927.91 -44.37Q928.62 -42.05 926.9 -37.33L918.51 -13.52Q917.14 -9.57 917.5 -8.01Q917.86 -6.46 919.12 -6.46Q919.97 -6.46 920.9 -7.01Q921.84 -7.56 923.25 -8.99Q924.04 -9.7 924.57 -9.88Q925.1 -10.06 925.58 -9.8Z M935.51 -35.82Q934.95 -36.08 934.95 -36.83Q934.96 -37.59 935.53 -38.72Q936.92 -41.15 939.02 -42.94Q941.12 -44.74 943.71 -45.71Q946.31 -46.68 949.13 -46.68Q951.89 -46.68 953.32 -45.41Q954.75 -44.14 954.75 -41.66Q954.75 -39.66 953.95 -37.09Q953.16 -34.51 952.07 -31.67Q950.98 -28.84 950.02 -26.06Q949.06 -23.28 948.72 -20.91L947.95 -21.07Q949.66 -27.1 952.12 -31.84Q954.57 -36.58 957.48 -39.89Q960.38 -43.2 963.47 -44.94Q966.55 -46.68 969.54 -46.68Q973.35 -46.68 975.29 -44.45Q977.22 -42.22 977.08 -38.6Q976.94 -35.78 975.88 -33.76Q974.82 -31.74 973.18 -30.69Q971.55 -29.64 969.62 -29.64Q967.52 -29.64 966.52 -30.61Q965.51 -31.58 965.51 -32.92Q965.51 -34 965.85 -35.03Q966.18 -36.06 966.18 -37.16Q966.18 -38.32 965.65 -39.02Q965.11 -39.72 963.98 -39.72Q961.96 -39.72 959.4 -37.3Q956.85 -34.88 954.21 -30.08Q951.58 -25.28 949.22 -17.96Q948.11 -14.51 947.57 -12.41Q947.03 -10.31 947.03 -8.62Q947.03 -7.31 947.54 -6.63Q948.06 -5.95 948.6 -5.34Q949.14 -4.73 949.14 -3.61Q949.14 -2.36 947.89 -1.27Q946.64 -0.18 944.25 0.46Q941.86 1.1 938.44 1.1Q935.98 1.1 934.81 0.02Q933.64 -1.05 933.69 -3.15Q933.74 -5.25 934.79 -8.42L942.62 -32.11Q943.99 -36.06 943.61 -37.61Q943.23 -39.16 941.93 -39.16Q941.13 -39.16 940.17 -38.62Q939.21 -38.08 937.79 -36.64Q937.01 -35.97 936.5 -35.79Q936 -35.61 935.51 -35.82Z M1020.55 -42.75Q1017.55 -42.75 1014.58 -40.33Q1011.6 -37.91 1009.36 -33.6Q1007.13 -29.28 1006.31 -23.55Q1005.05 -14.68 1007.5 -10.3Q1009.94 -5.92 1015.08 -5.96Q1017.47 -5.96 1019.8 -6.99Q1022.12 -8.01 1024.09 -10Q1026.06 -11.98 1027.31 -14.91Q1028.17 -16.09 1028.74 -16.63Q1029.31 -17.17 1030.09 -17.17Q1030.87 -17.12 1031.28 -16.35Q1031.69 -15.58 1031.29 -14.06Q1030.64 -11.28 1028.93 -8.59Q1027.22 -5.9 1024.5 -3.71Q1021.78 -1.52 1018.08 -0.22Q1014.39 1.08 1009.73 1.08Q1000.52 1.08 996.31 -4.88Q992.1 -10.83 993.75 -21.27Q994.64 -26.56 997.06 -31.2Q999.49 -35.85 1003.21 -39.33Q1006.92 -42.82 1011.71 -44.8Q1016.5 -46.79 1022 -46.79Q1026.58 -46.79 1029.62 -45.19Q1032.65 -43.58 1034.11 -41.04Q1035.56 -38.5 1035.45 -35.49Q1035.28 -32.14 1033.31 -30.38Q1031.34 -28.62 1028.98 -28.62Q1026.76 -28.62 1025.56 -29.73Q1024.37 -30.84 1024.38 -32.55Q1024.43 -34.03 1024.84 -35.34Q1025.24 -36.65 1025.24 -38.23Q1025.29 -40.21 1024.06 -41.48Q1022.83 -42.75 1020.55 -42.75Z M1064.66 -46.75Q1071.09 -46.64 1075.57 -43.77Q1080.04 -40.9 1081.97 -35.7Q1083.89 -30.49 1082.62 -23.3Q1081.68 -17.86 1079.15 -13.33Q1076.63 -8.8 1072.87 -5.54Q1069.1 -2.28 1064.42 -0.55Q1059.74 1.18 1054.38 1.06Q1048.13 0.93 1043.69 -1.89Q1039.25 -4.71 1037.31 -9.92Q1035.37 -15.13 1036.61 -22.32Q1037.61 -27.88 1040.13 -32.41Q1042.66 -36.94 1046.38 -40.21Q1050.1 -43.48 1054.77 -45.19Q1059.43 -46.9 1064.66 -46.75ZM1054.43 -3.15Q1056.42 -2.93 1058.34 -3.83Q1060.26 -4.73 1062.06 -6.55Q1063.85 -8.37 1065.39 -11Q1066.92 -13.64 1068.12 -16.99Q1069.32 -20.35 1070.09 -24.32Q1071.28 -30.25 1070.95 -34.21Q1070.61 -38.16 1069.01 -40.22Q1067.41 -42.28 1064.71 -42.55Q1062.71 -42.78 1060.81 -41.89Q1058.92 -41 1057.15 -39.19Q1055.38 -37.37 1053.85 -34.72Q1052.32 -32.08 1051.13 -28.69Q1049.94 -25.31 1049.17 -21.29Q1047.92 -15.32 1048.26 -11.38Q1048.6 -7.45 1050.22 -5.42Q1051.84 -3.39 1054.43 -3.15Z M1089.3 -35.82Q1088.74 -36.08 1088.75 -36.84Q1088.75 -37.6 1089.32 -38.72Q1091.4 -42.39 1095.05 -44.54Q1098.69 -46.68 1103.14 -46.68Q1106.04 -46.68 1107.67 -45.42Q1109.3 -44.15 1109.3 -41.68Q1109.3 -40.17 1108.68 -38.17Q1108.05 -36.18 1107.01 -33.6Q1105.97 -31.02 1104.64 -27.78Q1103.3 -24.54 1101.93 -20.49L1101.51 -22.05Q1104.33 -28.98 1107.82 -33.73Q1111.32 -38.48 1115.05 -41.34Q1118.78 -44.2 1122.38 -45.44Q1125.99 -46.68 1128.98 -46.68Q1133.08 -46.68 1134.88 -44.9Q1136.68 -43.11 1136.57 -39.85Q1136.47 -36.58 1134.95 -32.14L1128.48 -13.36Q1127.07 -9.4 1127.45 -7.86Q1127.84 -6.33 1129.13 -6.33Q1129.93 -6.33 1130.88 -6.87Q1131.83 -7.42 1133.2 -8.82Q1133.99 -9.56 1134.49 -9.74Q1134.99 -9.92 1135.48 -9.67Q1136.05 -9.41 1136.04 -8.64Q1136.04 -7.87 1135.46 -6.71Q1133.53 -3.15 1129.97 -1.04Q1126.4 1.06 1121.86 1.06Q1118.58 1.06 1116.92 -0.36Q1115.25 -1.79 1115.18 -4.49Q1115.1 -7.19 1116.44 -11.02L1123.01 -30.28Q1124.74 -35.01 1124.21 -36.93Q1123.67 -38.85 1121.15 -38.85Q1119.27 -38.85 1116.83 -37.58Q1114.4 -36.31 1111.83 -33.75Q1109.27 -31.19 1106.87 -27.34Q1104.47 -23.49 1102.62 -18.27Q1101.58 -15.32 1100.97 -13.39Q1100.36 -11.45 1100.09 -10.26Q1099.82 -9.07 1099.82 -8.26Q1099.82 -6.94 1100.26 -6.04Q1100.7 -5.14 1100.7 -3.83Q1100.7 -1.62 1098.12 -0.28Q1095.53 1.06 1091.05 1.06Q1087.69 1.06 1086.98 -1.26Q1086.27 -3.58 1087.94 -8.29L1096.33 -32.11Q1097.74 -36.06 1097.39 -37.61Q1097.03 -39.16 1095.72 -39.16Q1094.92 -39.16 1093.96 -38.62Q1093.01 -38.08 1091.59 -36.64Q1090.8 -35.98 1090.3 -35.8Q1089.8 -35.61 1089.3 -35.82Z M1150.76 -40.28 1147.08 -41.04Q1146.28 -41.3 1145.89 -41.82Q1145.5 -42.35 1145.5 -43Q1145.5 -43.91 1146.26 -44.43Q1147.02 -44.96 1148.27 -44.96H1152.48Q1153.68 -44.96 1154.6 -45.43Q1155.52 -45.9 1156.38 -46.83L1162.81 -54.35Q1163.51 -55.13 1164.21 -55.42Q1164.91 -55.71 1165.71 -55.71Q1166.66 -55.71 1167.12 -55.23Q1167.57 -54.74 1167.57 -53.87Q1167.57 -53.35 1167.42 -52.45Q1167.26 -51.55 1166.91 -50.4L1156.19 -14.38Q1154.79 -9.63 1155.53 -8Q1156.27 -6.37 1158.77 -6.37Q1160.84 -6.37 1162.75 -7.4Q1164.66 -8.44 1166.77 -10.82Q1167.35 -11.46 1167.77 -11.71Q1168.19 -11.96 1168.68 -11.95Q1169.25 -11.95 1169.58 -11.54Q1169.92 -11.12 1169.79 -10.38Q1169.43 -8.55 1167.9 -6.54Q1166.37 -4.53 1163.91 -2.8Q1161.44 -1.08 1158.27 -0.01Q1155.09 1.06 1151.39 1.06Q1147.55 1.06 1145.57 -0.48Q1143.6 -2.01 1143.4 -5.08Q1143.19 -8.15 1144.56 -12.76L1151.52 -35.58Q1152.29 -38.05 1152.09 -39.01Q1151.9 -39.97 1150.76 -40.28ZM1160.78 -40.51 1162.19 -44.78H1174.99Q1176.75 -44.78 1176.75 -43.26Q1176.75 -41.96 1175.65 -41.23Q1174.54 -40.51 1172.64 -40.51Z M1180.69 -20.77Q1180.69 -20.77 1182.53 -21.44Q1184.36 -22.12 1187.31 -23.17Q1190.26 -24.22 1193.63 -25.44Q1197 -26.65 1200.19 -27.81Q1203.38 -28.98 1205.67 -29.8L1204.41 -28.22Q1204.83 -29.56 1205.1 -31.32Q1205.36 -33.09 1205.36 -35.5Q1205.37 -38.73 1204.09 -40.8Q1202.8 -42.88 1200.61 -42.88Q1198.42 -42.88 1196.12 -41.21Q1193.82 -39.55 1191.82 -36.56Q1189.82 -33.57 1188.43 -29.53Q1187.04 -25.48 1186.63 -20.72Q1185.99 -13.34 1188.67 -9.57Q1191.35 -5.8 1196.55 -5.8Q1199.52 -5.8 1202.26 -6.93Q1205.01 -8.07 1207.25 -10.25Q1209.49 -12.43 1210.9 -15.56Q1211.68 -16.65 1212.25 -17.03Q1212.81 -17.41 1213.46 -17.4Q1214.29 -17.35 1214.74 -16.67Q1215.19 -15.98 1214.83 -14.46Q1213.82 -10.36 1210.8 -6.8Q1207.77 -3.23 1202.87 -1.09Q1197.98 1.06 1191.19 1.06Q1185.25 1.06 1181.36 -1.18Q1177.48 -3.42 1175.76 -7.58Q1174.04 -11.74 1174.5 -17.61Q1175 -23.52 1177.4 -28.78Q1179.8 -34.05 1183.67 -38.1Q1187.53 -42.16 1192.43 -44.46Q1197.32 -46.77 1202.76 -46.77Q1206.92 -46.77 1209.68 -45.16Q1212.44 -43.56 1213.88 -40.89Q1215.31 -38.22 1215.56 -34.97Q1215.63 -34.16 1215.97 -33.63Q1216.32 -33.1 1216.99 -33.05Q1217.67 -33.06 1218.01 -32.76Q1218.34 -32.45 1218.34 -31.83Q1218.35 -31.1 1217.73 -30.45Q1217.1 -29.8 1215.34 -29.25Q1213.49 -28.63 1210.25 -27.53Q1207.02 -26.42 1203.16 -25.11Q1199.3 -23.8 1195.41 -22.44Q1191.52 -21.09 1188.28 -20Q1185.04 -18.9 1183.05 -18.22Q1181.07 -17.53 1181.07 -17.53Z M1240.62 -23.32 1243.36 -22.46Q1241.95 -16 1239.96 -11.5Q1237.97 -6.99 1235.54 -4.23Q1233.11 -1.47 1230.38 -0.22Q1227.65 1.03 1224.7 1.03Q1220.6 1.03 1218.54 -1.28Q1216.49 -3.6 1216.54 -7.5Q1216.55 -11.45 1218.28 -13.89Q1220.01 -16.32 1222.6 -16.32Q1224.51 -16.32 1225.67 -15.05Q1226.82 -13.78 1226.82 -11.67Q1226.82 -10.51 1226.52 -9.31Q1226.22 -8.11 1226.22 -6.92Q1226.22 -5.88 1226.85 -5.28Q1227.47 -4.68 1228.67 -4.68Q1230.22 -4.68 1232.23 -6.23Q1234.25 -7.79 1236.46 -11.85Q1238.68 -15.92 1240.62 -23.32ZM1250.32 -35.44 1250.84 -13.23Q1250.93 -9.74 1252.14 -7.98Q1253.35 -6.22 1255.54 -6.22Q1257.44 -6.22 1258.9 -7.16Q1260.37 -8.1 1262.17 -10.41Q1263.13 -11.55 1263.67 -11.94Q1264.22 -12.34 1264.92 -12.24Q1265.66 -12.15 1265.94 -11.52Q1266.21 -10.9 1265.82 -9.74Q1264.77 -6.9 1262.63 -4.42Q1260.48 -1.95 1257.52 -0.44Q1254.56 1.07 1251.12 1.07Q1247.56 1.07 1245.26 -0.34Q1242.97 -1.75 1241.78 -4.58Q1240.6 -7.4 1240.37 -11.54L1239.77 -33.31Q1239.69 -36.82 1238.54 -38.35Q1237.39 -39.89 1235.5 -39.89Q1233.81 -39.89 1232.2 -38.91Q1230.58 -37.94 1228.65 -35.26Q1227.99 -34.42 1227.52 -34.06Q1227.06 -33.71 1226.43 -33.8Q1225.7 -33.9 1225.38 -34.56Q1225.07 -35.22 1225.55 -36.59Q1226.66 -39.24 1228.82 -41.54Q1230.98 -43.83 1234.04 -45.28Q1237.1 -46.73 1240.77 -46.73Q1243.95 -46.73 1246 -45.36Q1248.05 -43.99 1249.14 -41.48Q1250.23 -38.98 1250.32 -35.44ZM1249.95 -20.27 1247.57 -21.08Q1249.06 -28.05 1251.15 -32.92Q1253.25 -37.79 1255.78 -40.84Q1258.31 -43.88 1261.08 -45.27Q1263.85 -46.66 1266.69 -46.66Q1270.55 -46.66 1272.58 -44.3Q1274.62 -41.94 1274.55 -38.28Q1274.52 -33.85 1272.67 -31.49Q1270.81 -29.13 1268.27 -29.13Q1266.5 -29.13 1265.41 -30.2Q1264.32 -31.28 1264.38 -33.14Q1264.44 -34.16 1264.9 -35.59Q1265.35 -37.03 1265.35 -38.41Q1265.35 -39.33 1264.69 -39.89Q1264.04 -40.46 1262.83 -40.46Q1261.4 -40.46 1259.79 -39.38Q1258.18 -38.3 1256.5 -35.94Q1254.83 -33.58 1253.16 -29.72Q1251.49 -25.87 1249.95 -20.27Z M1283.81 -40.28 1280.13 -41.04Q1279.33 -41.3 1278.94 -41.82Q1278.55 -42.35 1278.55 -43Q1278.55 -43.91 1279.31 -44.43Q1280.07 -44.96 1281.32 -44.96H1285.53Q1286.73 -44.96 1287.65 -45.43Q1288.57 -45.9 1289.43 -46.83L1295.86 -54.35Q1296.56 -55.13 1297.26 -55.42Q1297.96 -55.71 1298.76 -55.71Q1299.71 -55.71 1300.17 -55.23Q1300.62 -54.74 1300.62 -53.87Q1300.62 -53.35 1300.47 -52.45Q1300.31 -51.55 1299.96 -50.4L1289.24 -14.38Q1287.84 -9.63 1288.58 -8Q1289.32 -6.37 1291.82 -6.37Q1293.89 -6.37 1295.8 -7.4Q1297.71 -8.44 1299.82 -10.82Q1300.4 -11.46 1300.82 -11.71Q1301.24 -11.96 1301.73 -11.95Q1302.3 -11.95 1302.63 -11.54Q1302.97 -11.12 1302.84 -10.38Q1302.48 -8.55 1300.95 -6.54Q1299.42 -4.53 1296.96 -2.8Q1294.49 -1.08 1291.32 -0.01Q1288.14 1.06 1284.44 1.06Q1280.6 1.06 1278.62 -0.48Q1276.65 -2.01 1276.45 -5.08Q1276.24 -8.15 1277.61 -12.76L1284.57 -35.58Q1285.34 -38.05 1285.14 -39.01Q1284.95 -39.97 1283.81 -40.28ZM1293.83 -40.51 1295.24 -44.78H1308.04Q1309.8 -44.78 1309.8 -43.26Q1309.8 -41.96 1308.7 -41.23Q1307.59 -40.51 1305.69 -40.51Z M1342.24 -38.66 1344.06 -43.57 1356.03 -43.57Q1357.37 -43.57 1358.08 -43.18Q1358.8 -42.79 1358.8 -41.75Q1358.8 -40.89 1358.17 -40.18Q1357.54 -39.47 1356.47 -39.06Q1355.39 -38.66 1353.93 -38.66ZM1328.5 -41.66Q1328.5 -42.52 1329.16 -43.09Q1329.83 -43.66 1331.22 -43.66H1337.1L1339.58 -53.68Q1341.64 -62.38 1346.35 -66.99Q1351.05 -71.6 1358.9 -71.6Q1363.41 -71.6 1365.63 -69.78Q1367.84 -67.95 1367.84 -65.51Q1367.84 -62.94 1366.33 -61.38Q1364.81 -59.82 1362.3 -59.82Q1360.68 -59.82 1359.3 -60.55Q1357.93 -61.28 1356.69 -62.21Q1355.45 -63.14 1354.22 -63.87Q1353 -64.59 1351.68 -64.59Q1349.48 -64.59 1348 -63.07Q1346.51 -61.56 1345.97 -59.17Q1345.63 -57.52 1346.08 -55.53Q1346.54 -53.53 1347.25 -51.39Q1347.96 -49.25 1348.33 -47.09Q1348.71 -44.92 1348.15 -42.89L1335.75 2.9Q1335.39 4.44 1335.18 5.61Q1334.97 6.79 1334.97 7.74Q1334.97 9.05 1335.64 9.88Q1336.3 10.71 1336.97 11.44Q1337.63 12.16 1337.63 13.22Q1337.63 14.72 1336.01 16.07Q1334.38 17.41 1331.78 18.26Q1329.17 19.11 1326.28 19.11Q1323.05 19.11 1322.11 16.8Q1321.17 14.5 1322.52 9.86L1334.7 -33.29Q1335.54 -36.22 1334.81 -37.53Q1334.08 -38.85 1330.94 -39.29Q1329.46 -39.87 1328.98 -40.46Q1328.5 -41.05 1328.5 -41.66Z M1383.16 -46.75Q1389.59 -46.64 1394.07 -43.77Q1398.54 -40.9 1400.47 -35.7Q1402.39 -30.49 1401.12 -23.3Q1400.18 -17.86 1397.65 -13.33Q1395.13 -8.8 1391.37 -5.54Q1387.6 -2.28 1382.92 -0.55Q1378.24 1.18 1372.88 1.06Q1366.63 0.93 1362.19 -1.89Q1357.75 -4.71 1355.81 -9.92Q1353.87 -15.13 1355.11 -22.32Q1356.11 -27.88 1358.63 -32.41Q1361.16 -36.94 1364.88 -40.21Q1368.6 -43.48 1373.27 -45.19Q1377.93 -46.9 1383.16 -46.75ZM1372.93 -3.15Q1374.92 -2.93 1376.84 -3.83Q1378.76 -4.73 1380.56 -6.55Q1382.35 -8.37 1383.89 -11Q1385.42 -13.64 1386.62 -16.99Q1387.82 -20.35 1388.59 -24.32Q1389.78 -30.25 1389.45 -34.21Q1389.11 -38.16 1387.51 -40.22Q1385.91 -42.28 1383.21 -42.55Q1381.21 -42.78 1379.31 -41.89Q1377.42 -41 1375.65 -39.19Q1373.88 -37.37 1372.35 -34.72Q1370.82 -32.08 1369.63 -28.69Q1368.44 -25.31 1367.67 -21.29Q1366.42 -15.32 1366.76 -11.38Q1367.1 -7.45 1368.72 -5.42Q1370.34 -3.39 1372.93 -3.15Z M1436.46 -71.99Q1440.71 -71.99 1442.74 -70.28Q1444.77 -68.58 1444.77 -66.18Q1444.77 -63.94 1443.44 -62.54Q1442.1 -61.14 1439.47 -61.14Q1437.88 -61.14 1436.7 -61.71Q1435.53 -62.27 1434.46 -63.01Q1433.4 -63.75 1432.33 -64.32Q1431.25 -64.88 1429.87 -64.88Q1428.49 -64.88 1427.35 -64.13Q1426.21 -63.37 1425.5 -62.11Q1424.8 -60.85 1424.67 -59.3Q1424.63 -58.11 1425.02 -56.93Q1425.41 -55.75 1425.93 -54.48Q1426.46 -53.22 1426.88 -51.78Q1427.3 -50.35 1427.33 -48.58Q1427.36 -46.81 1426.69 -44.66L1417.31 -14.03Q1415.97 -9.54 1416.35 -8Q1416.74 -6.46 1418.33 -6.46Q1419.64 -6.46 1421.11 -7.25Q1422.59 -8.05 1423.99 -9.7Q1424.62 -10.34 1425.08 -10.51Q1425.54 -10.68 1425.98 -10.5Q1426.6 -10.29 1426.7 -9.56Q1426.8 -8.83 1426.22 -7.62Q1425.15 -5.19 1422.85 -3.2Q1420.55 -1.22 1417.45 -0.08Q1414.36 1.06 1410.9 1.06Q1407.46 1.06 1405.78 -0.33Q1404.09 -1.71 1404 -4.52Q1403.9 -7.33 1405.18 -11.52L1419.29 -57.48Q1421.62 -65.04 1425.96 -68.51Q1430.31 -71.99 1436.46 -71.99Z M1464.96 -71.99Q1469.21 -71.99 1471.24 -70.28Q1473.27 -68.58 1473.27 -66.18Q1473.27 -63.94 1471.94 -62.54Q1470.6 -61.14 1467.97 -61.14Q1466.38 -61.14 1465.2 -61.71Q1464.03 -62.27 1462.96 -63.01Q1461.9 -63.75 1460.83 -64.32Q1459.75 -64.88 1458.37 -64.88Q1456.99 -64.88 1455.85 -64.13Q1454.71 -63.37 1454 -62.11Q1453.3 -60.85 1453.17 -59.3Q1453.13 -58.11 1453.52 -56.93Q1453.91 -55.75 1454.43 -54.48Q1454.96 -53.22 1455.38 -51.78Q1455.8 -50.35 1455.83 -48.58Q1455.86 -46.81 1455.19 -44.66L1445.81 -14.03Q1444.47 -9.54 1444.85 -8Q1445.24 -6.46 1446.83 -6.46Q1448.14 -6.46 1449.61 -7.25Q1451.09 -8.05 1452.49 -9.7Q1453.12 -10.34 1453.58 -10.51Q1454.04 -10.68 1454.48 -10.5Q1455.1 -10.29 1455.2 -9.56Q1455.3 -8.83 1454.72 -7.62Q1453.65 -5.19 1451.35 -3.2Q1449.05 -1.22 1445.95 -0.08Q1442.86 1.06 1439.4 1.06Q1435.96 1.06 1434.28 -0.33Q1432.59 -1.71 1432.5 -4.52Q1432.4 -7.33 1433.68 -11.52L1447.79 -57.48Q1450.12 -65.04 1454.46 -68.51Q1458.81 -71.99 1464.96 -71.99Z M1488.41 -46.75Q1494.84 -46.64 1499.32 -43.77Q1503.79 -40.9 1505.72 -35.7Q1507.64 -30.49 1506.37 -23.3Q1505.43 -17.86 1502.9 -13.33Q1500.38 -8.8 1496.62 -5.54Q1492.85 -2.28 1488.17 -0.55Q1483.49 1.18 1478.13 1.06Q1471.88 0.93 1467.44 -1.89Q1463 -4.71 1461.06 -9.92Q1459.12 -15.13 1460.36 -22.32Q1461.36 -27.88 1463.88 -32.41Q1466.41 -36.94 1470.13 -40.21Q1473.85 -43.48 1478.52 -45.19Q1483.18 -46.9 1488.41 -46.75ZM1478.18 -3.15Q1480.17 -2.93 1482.09 -3.83Q1484.01 -4.73 1485.81 -6.55Q1487.6 -8.37 1489.14 -11Q1490.67 -13.64 1491.87 -16.99Q1493.07 -20.35 1493.84 -24.32Q1495.03 -30.25 1494.7 -34.21Q1494.36 -38.16 1492.76 -40.22Q1491.16 -42.28 1488.46 -42.55Q1486.46 -42.78 1484.56 -41.89Q1482.67 -41 1480.9 -39.19Q1479.13 -37.37 1477.6 -34.72Q1476.07 -32.08 1474.88 -28.69Q1473.69 -25.31 1472.92 -21.29Q1471.67 -15.32 1472.01 -11.38Q1472.35 -7.45 1473.97 -5.42Q1475.59 -3.39 1478.18 -3.15Z M1560.97 -46.77Q1563.1 -46.65 1563.77 -43.9Q1564.43 -41.16 1562.99 -35.62Q1560.47 -25.66 1556.82 -18.65Q1553.18 -11.65 1548.63 -7.29Q1544.09 -2.94 1538.83 -0.94Q1533.58 1.06 1527.83 1.06Q1522.44 1.06 1519.6 -1.31Q1516.75 -3.67 1516.84 -8.28Q1516.93 -12.26 1518.63 -15.63Q1520.33 -19 1522.91 -21.88Q1525.5 -24.76 1528.26 -27.32Q1531.02 -29.88 1533.26 -32.23Q1535.5 -34.59 1536.48 -36.87L1536.17 -34.82Q1533.4 -34.82 1530.86 -35.44Q1528.33 -36.06 1526.01 -36.86Q1523.69 -37.66 1521.54 -38.31Q1519.39 -38.95 1517.48 -38.97Q1515.46 -39.03 1514.37 -38.11Q1513.28 -37.19 1513.22 -35.85Q1513.13 -34.22 1515.32 -33.03Q1516.73 -32.34 1517.36 -31.59Q1518 -30.84 1517.98 -29.64Q1517.93 -28.04 1516.83 -27.13Q1515.73 -26.23 1514.26 -26.23Q1511.82 -26.23 1510.29 -28.27Q1508.77 -30.31 1508.92 -33.99Q1509.11 -37.6 1510.78 -40.48Q1512.45 -43.37 1515.4 -45.04Q1518.36 -46.72 1522.24 -46.72Q1524.32 -46.72 1526.51 -46.22Q1528.71 -45.72 1530.73 -45.22Q1532.74 -44.72 1534.19 -44.72Q1535.79 -44.72 1536.61 -45.23Q1537.42 -45.74 1538.12 -46.25Q1538.81 -46.76 1539.89 -46.71Q1541.01 -46.66 1541.63 -45.83Q1542.25 -45.01 1542.07 -43.38Q1541.68 -41.08 1540.47 -38.38Q1539.25 -35.68 1537.7 -32.66Q1536.14 -29.63 1534.65 -26.32Q1533.15 -23.01 1532.18 -19.44Q1531.2 -15.87 1531.2 -12.07Q1531.2 -8.48 1532.66 -6.88Q1534.11 -5.28 1536.86 -5.28Q1539.62 -5.28 1542.67 -6.85Q1545.72 -8.43 1548.89 -11.91Q1552.05 -15.39 1555.13 -21.04Q1558.21 -26.7 1560.92 -34.76Q1558.71 -25.71 1558.02 -19.78Q1557.33 -13.86 1557.82 -10.5Q1558.3 -7.14 1559.72 -5.78Q1561.13 -4.42 1563.06 -4.42Q1565.17 -4.42 1567.41 -5.8Q1569.65 -7.19 1571.71 -9.75Q1573.77 -12.32 1575.41 -15.9Q1577.06 -19.48 1577.94 -23.83Q1578.42 -26.23 1578.28 -28.2Q1578.14 -30.18 1577.5 -31.74Q1576.87 -33.3 1575.8 -34.55Q1574.51 -35.86 1573.85 -37.29Q1573.19 -38.73 1573.26 -40.5Q1573.32 -42.06 1574.14 -43.47Q1574.96 -44.87 1576.38 -45.78Q1577.8 -46.68 1579.68 -46.68Q1583.57 -46.68 1585.16 -42.61Q1586.76 -38.53 1585.72 -31.1Q1584.8 -24.36 1582.33 -18.52Q1579.85 -12.69 1576.25 -8.29Q1572.66 -3.89 1568.33 -1.41Q1564 1.06 1559.4 1.06Q1554.96 1.06 1552.16 -1.19Q1549.36 -3.45 1548.33 -7.92Q1547.29 -12.4 1548.01 -19.01Q1548.72 -25.62 1551.16 -34.34Q1553.07 -41.06 1555.61 -43.99Q1558.15 -46.92 1560.97 -46.77Z M1604 -2.65Q1607.1 -2.65 1609.06 -4.33Q1611.01 -6.02 1611.01 -8.64Q1611.02 -10.16 1610.37 -11.55Q1609.72 -12.95 1607.97 -14.63Q1606.23 -16.3 1602.96 -18.69Q1599.32 -21.33 1597.19 -23.41Q1595.06 -25.5 1594.15 -27.63Q1593.25 -29.75 1593.27 -32.4Q1593.3 -36.28 1595.69 -39.54Q1598.09 -42.81 1602.57 -44.79Q1607.05 -46.77 1613.34 -46.77Q1618.29 -46.77 1621.62 -45.45Q1624.95 -44.14 1626.66 -41.97Q1628.37 -39.8 1628.37 -37.22Q1628.43 -35 1627.44 -33.8Q1626.46 -32.61 1624.76 -32.61Q1623.1 -32.61 1621.9 -33.66Q1620.71 -34.71 1619.53 -37.44Q1618.21 -40.32 1616.37 -41.8Q1614.53 -43.27 1611.93 -43.27Q1608.54 -43.27 1606.48 -41.42Q1604.43 -39.56 1604.42 -36.6Q1604.42 -35.04 1605.07 -33.55Q1605.71 -32.06 1607.48 -30.23Q1609.24 -28.4 1612.62 -25.78Q1616.48 -22.93 1618.6 -20.77Q1620.71 -18.6 1621.53 -16.58Q1622.35 -14.56 1622.31 -12.11Q1622.25 -8.29 1619.82 -5.3Q1617.39 -2.32 1613.02 -0.63Q1608.64 1.06 1602.73 1.06Q1597.39 1.06 1593.75 -0.44Q1590.12 -1.93 1588.3 -4.33Q1586.49 -6.73 1586.49 -9.41Q1586.53 -11.43 1587.47 -12.65Q1588.42 -13.87 1590.03 -13.87Q1591.87 -13.87 1593.16 -12.67Q1594.45 -11.47 1595.6 -8.83Q1597.32 -5.41 1599.39 -4.03Q1601.47 -2.65 1604 -2.65Z M1634.41 0.85Q1631.16 0.85 1629.45 -0.9Q1627.73 -2.64 1627.97 -5.23Q1628.11 -7.3 1629.39 -9.06Q1630.67 -10.83 1632.87 -11.89Q1635.07 -12.94 1637.92 -12.94Q1641.27 -12.94 1642.84 -11.17Q1644.41 -9.4 1644.16 -6.74Q1644.02 -4.73 1642.77 -3.01Q1641.52 -1.28 1639.39 -0.22Q1637.25 0.85 1634.41 0.85Z"/>
  </g>

  <text x="90" y="286" font-family="Inter, -apple-system, 'Segoe UI', Helvetica, Arial, sans-serif" font-size="20" font-weight="400" fill="#564D40">The context layer your AI agents work from.</text>
  <text x="90" y="316" font-family="'JetBrains Mono', ui-monospace, 'SF Mono', Menlo, monospace" font-size="14.5" font-weight="500" letter-spacing="0.5" fill="#6B6256">local-first  ·  offline  ·  model-agnostic</text>

  <rect x="40" y="330" width="1200" height="5" rx="2.5" fill="url(#weave)"/>
</svg>
