<svg xmlns="http://www.w3.org/2000/svg" viewBox="-1.12 -100.24 467.18 106.84" role="img" aria-label="loomem">
  <title>loomem</title>
  <defs>
    <linearGradient id="weave" gradientUnits="userSpaceOnUse" x1="163.64" y1="-96.20" x2="470.98" y2="3.66">
    <stop offset="0" stop-color="#FBD68A"/>
    <stop offset="0.26" stop-color="#F9C254"/>
    <stop offset="0.315" stop-color="#FFB472"/>
    <stop offset="0.37" stop-color="#FFAC98"/>
    <stop offset="0.425" stop-color="#FFAABE"/>
    <stop offset="0.48" stop-color="#FBAEDF"/>
    <stop offset="0.535" stop-color="#E4B6F6"/>
    <stop offset="0.59" stop-color="#CABFFF"/>
    <stop offset="0.645" stop-color="#B0C9FF"/>
    <stop offset="0.7" stop-color="#9CD0F7"/>
    <stop offset="1" stop-color="#63B5F0"/>
    </linearGradient>
  </defs>
  <path fill="#F7F2E9" d="M27.85 -92.25V-7.8Q27.85 -6.25 28.35 -5.46Q28.85 -4.67 29.88 -4.36L32.66 -3.75Q33.63 -3.51 34.05 -3.01Q34.48 -2.52 34.48 -1.81Q34.48 -1.01 33.86 -0.5Q33.25 0 32 0H6.63Q5.41 0 4.81 -0.5Q4.22 -1.01 4.22 -1.81Q4.22 -2.52 4.65 -2.99Q5.08 -3.47 6 -3.77L8.86 -4.36Q9.89 -4.74 10.38 -5.47Q10.87 -6.21 10.87 -7.8V-83.11Q10.87 -84.28 10.48 -84.79Q10.09 -85.3 9.25 -85.42L5.54 -85.58Q4.73 -85.77 4.36 -86.18Q4 -86.58 4 -87.21Q4 -87.96 4.45 -88.42Q4.91 -88.89 6.05 -89.31L20.28 -93.95Q22.11 -94.62 23.14 -94.87Q24.18 -95.12 24.95 -95.12Q26.44 -95.12 27.14 -94.32Q27.85 -93.52 27.85 -92.25Z M70.94 -60.4Q80.3 -60.4 87.44 -56.45Q94.59 -52.49 98.59 -45.5Q102.6 -38.51 102.6 -29.27Q102.6 -20.41 98.48 -13.44Q94.35 -6.48 87.06 -2.5Q79.77 1.48 70.25 1.48Q60.9 1.48 53.79 -2.46Q46.68 -6.4 42.66 -13.37Q38.64 -20.35 38.64 -29.46Q38.64 -38.42 42.76 -45.39Q46.87 -52.37 54.15 -56.38Q61.43 -60.4 70.94 -60.4ZM74.95 -3.17Q79.2 -3.76 81.8 -7.12Q84.41 -10.48 85.17 -16.58Q85.94 -22.68 84.57 -31.36Q83.25 -40.01 80.63 -45.66Q78.01 -51.31 74.34 -53.83Q70.68 -56.35 66.32 -55.73Q62.03 -55.12 59.43 -51.73Q56.84 -48.34 56.13 -42.25Q55.42 -36.17 56.74 -27.54Q58.07 -18.94 60.72 -13.29Q63.38 -7.64 67.02 -5.1Q70.67 -2.55 74.95 -3.17Z M140.06 -60.4Q149.42 -60.4 156.56 -56.45Q163.71 -52.49 167.71 -45.5Q171.72 -38.51 171.72 -29.27Q171.72 -20.41 167.6 -13.44Q163.47 -6.48 156.18 -2.5Q148.89 1.48 139.37 1.48Q130.02 1.48 122.91 -2.46Q115.8 -6.4 111.78 -13.37Q107.76 -20.35 107.76 -29.46Q107.76 -38.42 111.88 -45.39Q115.99 -52.37 123.27 -56.38Q130.55 -60.4 140.06 -60.4ZM144.07 -3.17Q148.32 -3.76 150.92 -7.12Q153.53 -10.48 154.29 -16.58Q155.06 -22.68 153.69 -31.36Q152.37 -40.01 149.75 -45.66Q147.13 -51.31 143.46 -53.83Q139.8 -56.35 135.44 -55.73Q131.15 -55.12 128.55 -51.73Q125.96 -48.34 125.25 -42.25Q124.54 -36.17 125.86 -27.54Q127.19 -18.94 129.84 -13.29Q132.5 -7.64 136.14 -5.1Q139.79 -2.55 144.07 -3.17Z"/>
  <path fill="url(#weave)" d="M200.66 -57.26V-7.77Q200.66 -6.28 201.19 -5.48Q201.71 -4.69 202.72 -4.34L205.49 -3.75Q206.97 -3.14 206.97 -1.95Q206.97 0 204.47 0H179.47Q178.22 0 177.62 -0.5Q177.03 -1.01 177.03 -1.81Q177.03 -2.52 177.46 -2.98Q177.89 -3.45 178.76 -3.75L181.67 -4.36Q182.7 -4.74 183.19 -5.46Q183.68 -6.19 183.68 -7.7V-48.07Q183.68 -49.27 183.29 -49.83Q182.9 -50.4 182.06 -50.52L178.3 -50.68Q177.54 -50.83 177.16 -51.23Q176.79 -51.62 176.79 -52.29Q176.79 -53.03 177.24 -53.48Q177.7 -53.92 178.87 -54.34L193.12 -59.01Q194.86 -59.62 195.88 -59.89Q196.91 -60.16 197.84 -60.16Q199.25 -60.16 199.96 -59.34Q200.66 -58.53 200.66 -57.26ZM198.97 -43.63 196.9 -45.75 199.3 -47.94Q206.79 -54.91 212.52 -57.65Q218.25 -60.38 223.22 -60.38Q230.76 -60.38 235.35 -55.63Q239.95 -50.89 239.95 -42.22V-7.87Q239.95 -6.22 240.49 -5.43Q241.04 -4.64 242.11 -4.31L244.43 -3.71Q245.94 -3.14 245.94 -1.95Q245.94 0 243.37 0H219.1Q216.65 0 216.65 -1.95Q216.65 -3.14 218.12 -3.75L220.82 -4.31Q222.04 -4.71 222.54 -5.59Q223.05 -6.46 223.05 -8.18V-39.98Q223.05 -45.52 220.4 -48.3Q217.76 -51.08 213.35 -51.08Q210.44 -51.08 207.48 -49.84Q204.52 -48.59 201.42 -45.79ZM238.13 -43.63 236 -45.75 238.37 -48.04Q245.17 -54.63 250.4 -57.51Q255.62 -60.38 260.62 -60.38Q267.78 -60.38 271.97 -55.61Q276.17 -50.85 277.11 -42.19L281.12 -7.91Q281.33 -6.24 281.83 -5.41Q282.33 -4.58 283.4 -4.29L285.71 -3.72Q286.56 -3.42 286.97 -2.97Q287.37 -2.52 287.37 -1.81Q287.37 -1.01 286.82 -0.5Q286.27 0 285.02 0H259.89Q257.44 0 257.44 -1.95Q257.44 -3.12 258.95 -3.75L261.61 -4.31Q262.87 -4.69 263.47 -5.59Q264.06 -6.49 263.83 -8.23L260.21 -39.98Q259.55 -45.45 257.36 -48.27Q255.18 -51.08 251.02 -51.08Q248.56 -51.08 245.96 -49.77Q243.36 -48.45 240.42 -45.87Z M345.57 -36.1Q345.57 -33.76 344.21 -32.45Q342.85 -31.13 340.25 -31.13H300.34V-34.66H326.05Q328.52 -34.66 328.52 -36.99Q328.52 -46.52 325.46 -51.27Q322.4 -56.01 317.53 -56.01Q313.67 -56.01 310.77 -53.59Q307.87 -51.16 306.25 -46.44Q304.64 -41.72 304.64 -34.83Q304.64 -22.16 310.35 -15.8Q316.06 -9.45 325.4 -9.45Q331.39 -9.45 335.76 -12.24Q340.12 -15.03 341.87 -19.95Q342.59 -20.84 343.07 -21.16Q343.55 -21.47 343.99 -21.47Q344.7 -21.47 345.06 -20.85Q345.41 -20.22 345.35 -19.25Q345.04 -13.53 341.6 -8.79Q338.16 -4.06 332.32 -1.29Q326.47 1.48 318.98 1.48Q310.21 1.48 303.47 -2.21Q296.74 -5.89 292.91 -12.59Q289.08 -19.29 289.08 -28.21Q289.08 -37.76 292.81 -44.98Q296.55 -52.21 303.42 -56.3Q310.29 -60.4 319.71 -60.4Q327.77 -60.4 333.57 -57.27Q339.37 -54.15 342.47 -48.65Q345.57 -43.15 345.57 -36.1Z M374.23 -57.26V-7.77Q374.23 -6.28 374.75 -5.48Q375.28 -4.69 376.29 -4.34L379.05 -3.75Q380.54 -3.14 380.54 -1.95Q380.54 0 378.04 0H353.03Q351.79 0 351.19 -0.5Q350.6 -1.01 350.6 -1.81Q350.6 -2.52 351.03 -2.98Q351.46 -3.45 352.33 -3.75L355.24 -4.36Q356.27 -4.74 356.76 -5.46Q357.25 -6.19 357.25 -7.7V-48.07Q357.25 -49.27 356.86 -49.83Q356.47 -50.4 355.63 -50.52L351.87 -50.68Q351.11 -50.83 350.73 -51.23Q350.35 -51.62 350.35 -52.29Q350.35 -53.03 350.81 -53.48Q351.27 -53.92 352.43 -54.34L366.68 -59.01Q368.42 -59.62 369.45 -59.89Q370.48 -60.16 371.41 -60.16Q372.82 -60.16 373.52 -59.34Q374.23 -58.53 374.23 -57.26ZM372.54 -43.63 370.47 -45.75 372.87 -47.94Q380.36 -54.91 386.09 -57.65Q391.82 -60.38 396.79 -60.38Q404.33 -60.38 408.92 -55.63Q413.51 -50.89 413.51 -42.22V-7.87Q413.51 -6.22 414.06 -5.43Q414.61 -4.64 415.68 -4.31L418 -3.71Q419.51 -3.14 419.51 -1.95Q419.51 0 416.94 0H392.67Q390.22 0 390.22 -1.95Q390.22 -3.14 391.69 -3.75L394.39 -4.31Q395.61 -4.71 396.11 -5.59Q396.61 -6.46 396.61 -8.18V-39.98Q396.61 -45.52 393.97 -48.3Q391.33 -51.08 386.91 -51.08Q384.01 -51.08 381.05 -49.84Q378.09 -48.59 374.99 -45.79ZM411.7 -43.63 409.57 -45.75 411.94 -48.04Q418.74 -54.63 423.97 -57.51Q429.19 -60.38 434.19 -60.38Q441.34 -60.38 445.54 -55.61Q449.74 -50.85 450.68 -42.19L454.69 -7.91Q454.9 -6.24 455.4 -5.41Q455.9 -4.58 456.97 -4.29L459.28 -3.72Q460.13 -3.42 460.53 -2.97Q460.94 -2.52 460.94 -1.81Q460.94 -1.01 460.39 -0.5Q459.84 0 458.59 0H433.46Q431.01 0 431.01 -1.95Q431.01 -3.12 432.52 -3.75L435.18 -4.31Q436.43 -4.69 437.03 -5.59Q437.63 -6.49 437.4 -8.23L433.78 -39.98Q433.12 -45.45 430.93 -48.27Q428.75 -51.08 424.59 -51.08Q422.13 -51.08 419.53 -49.77Q416.93 -48.45 413.99 -45.87Z"/>
</svg>
